<svg width="559" height="133" viewBox="0 0 559 133" fill="none" xmlns="http://www.w3.org/2000/svg">
<path fill-rule="evenodd" clip-rule="evenodd" d="M370.508 35.86C370.508 47.56 360.94 58.74 348.668 58.74C339.204 58.74 332.392 52.552 332.392 42.828C332.392 31.388 341.752 20 354.128 20C363.644 20 370.508 26.292 370.508 35.86ZM353.452 27.54C346.38 27.54 341.076 34.976 341.076 42.1C341.076 47.456 344.3 51.096 349.448 51.096C356.521 51.096 361.824 43.764 361.824 36.588C361.824 31.232 358.6 27.54 353.452 27.54ZM312.428 46.468C312.428 53.696 306.292 58.688 297.712 58.688C289.08 58.688 282.372 53.436 283.152 45.272H291.42C291.16 49.328 293.916 52.032 298.076 52.032C301.456 52.032 304.004 50.212 304.004 47.612C304.004 45.948 302.912 44.648 300.624 43.972L297.036 42.932C290.484 41.112 287.572 37.472 287.572 32.48C287.572 25.46 293.5 20.312 301.664 20.312C309.672 20.312 315.704 25.252 315.132 33.052H306.864C307.02 29.36 304.836 26.864 301.196 26.864C298.076 26.864 295.996 28.788 295.996 31.336C295.996 33.156 297.14 34.3 299.116 34.924L302.756 35.912C309.256 37.784 312.428 41.372 312.428 46.468ZM241.273 57.7H249.437L271.797 21.3H262.697L248.137 45.896L245.953 21.3H237.477L241.273 57.7ZM266.937 57.7H275.257L284.357 21.3H276.037L266.937 57.7ZM314.771 57.7H323.091L332.191 21.3H323.871L314.771 57.7ZM370.572 57.7H378.788L384.404 34.092L393.452 57.7H401.564L410.612 21.3H402.396L396.728 44.908L387.732 21.3H379.62L370.572 57.7ZM416.617 57.7L418.073 51.72C435.025 40.696 440.277 36.224 440.277 31.596C440.277 29.152 438.665 27.488 436.221 27.488C433.361 27.488 431.073 29.776 430.189 33.416L422.285 32.48C424.001 25.304 429.461 20.468 436.741 20.468C442.825 20.468 448.701 23.796 448.701 30.712C448.701 40.384 437.729 46.884 428.733 51.252H443.293L441.681 57.7H416.617ZM219.96 109.7H245.128L246.792 103.044H230.048L232.232 94.412H246.896L248.456 88.224H233.792L235.82 79.852H252.46L254.072 73.3H229.06L219.96 109.7ZM280.844 98.468C280.844 105.696 274.708 110.688 266.128 110.688C257.496 110.688 250.788 105.436 251.568 97.272H259.836C259.576 101.328 262.332 104.032 266.492 104.032C269.872 104.032 272.42 102.212 272.42 99.612C272.42 97.948 271.328 96.648 269.04 95.972L265.452 94.932C258.9 93.112 255.988 89.472 255.988 84.48C255.988 77.46 261.916 72.312 270.08 72.312C278.088 72.312 284.12 77.252 283.548 85.052H275.28C275.436 81.36 273.252 78.864 269.612 78.864C266.492 78.864 264.412 80.788 264.412 83.336C264.412 85.156 265.556 86.3 267.532 86.924L271.172 87.912C277.672 89.784 280.844 93.372 280.844 98.468ZM289.694 109.7H298.118L305.45 80.424H315.694L317.462 73.3H288.498L286.73 80.424H297.026L289.694 109.7ZM321.289 109.7H312.969L322.069 73.3H330.389L321.289 109.7ZM326.952 109.7H335.116L341.304 82.92L342.396 109.7H350.82L365.328 82.92L358.1 109.7H366.264L375.364 73.3H362.884L348.948 100.028L348.428 73.3H336.052L326.952 109.7ZM378.987 109.7H370.355L391.779 73.3H402.907L406.703 109.7H398.175L397.447 101.12H383.979L378.987 109.7ZM395.731 80.788L387.775 94.568H396.875L395.731 80.788ZM412.835 109.7H421.259L428.591 80.424H438.835L440.603 73.3H411.639L409.871 80.424H420.167L412.835 109.7ZM444.429 109.7H436.109L445.209 73.3H453.529L444.429 109.7ZM450.144 109.7H458.36L463.976 86.092L473.024 109.7H481.136L490.184 73.3H481.968L476.3 96.908L467.304 73.3H459.192L450.144 109.7ZM527.967 90.044C527.551 101.64 519.647 110.74 507.739 110.74C498.119 110.74 490.371 104.656 490.371 94.308C490.371 82.608 499.835 72.26 512.263 72.26C521.623 72.26 528.747 78.24 528.435 85.884L519.699 86.56C519.699 82.452 516.371 79.592 511.639 79.592C503.735 79.592 498.847 87.6 498.847 94.152C498.847 99.872 502.695 103.668 508.363 103.668C513.251 103.668 517.359 100.86 518.451 96.648H506.907L508.571 90.044H527.967ZM189.219 112.444L221.74 20.8301L221.976 20.9137L189.455 112.528L189.219 112.444ZM48.9022 76.2003L67.8045 22.5015H30L48.9022 76.2003ZM110.807 22.5015H87.9526L57.5801 108.711H80.2198L110.807 22.5015ZM175.633 62.9044L183.108 41.5879H127.175L119.571 62.9044H175.633ZM171.681 74.0986L164.163 95.4152H108.058L115.576 74.0986H171.681Z" fill="#231F20"/>
</svg>
